<svg width="28" height="20" viewBox="0 0 28 20" fill="none" xmlns="http://www.w3.org/2000/svg">
<path d="M22.6985 1.69458C25.653 6.0495 27.112 10.9617 26.5666 16.6168C26.5643 16.6408 26.5519 16.6627 26.5323 16.6771C24.2949 18.3242 22.1272 19.3237 19.9899 19.9866C19.9733 19.9917 19.9555 19.9914 19.939 19.9858C19.9225 19.9802 19.9082 19.9696 19.898 19.9555C19.4042 19.2667 18.9556 18.5405 18.5625 17.778C18.54 17.7331 18.5606 17.679 18.607 17.6613C19.3195 17.3921 19.9971 17.0696 20.6488 16.6876C20.7002 16.6575 20.7034 16.5837 20.656 16.5483C20.5177 16.4454 20.3807 16.3372 20.2495 16.229C20.225 16.209 20.192 16.2051 20.1642 16.2185C15.9331 18.1773 11.2981 18.1773 7.01701 16.2185C6.98922 16.206 6.95619 16.2103 6.93232 16.23C6.80152 16.3382 6.66418 16.4454 6.52716 16.5483C6.47975 16.5837 6.48367 16.6575 6.53534 16.6876C7.18705 17.0623 7.86461 17.3921 8.57617 17.6626C8.62227 17.6803 8.64418 17.7331 8.62129 17.778C8.23674 18.5415 7.78809 19.2677 7.28516 19.9564C7.26325 19.9843 7.22728 19.9971 7.19327 19.9866C5.06611 19.3237 2.8984 18.3242 0.66104 16.6771C0.642401 16.6627 0.628993 16.6398 0.627031 16.6158C0.171188 11.7243 1.10021 6.77138 4.49156 1.6936C4.49974 1.68016 4.51216 1.66967 4.52655 1.66344C6.19525 0.895658 7.98298 0.330804 9.85148 0.00821792C9.88549 0.00297261 9.9195 0.0187085 9.93716 0.048869C10.168 0.458659 10.4319 0.984173 10.6105 1.41363C12.58 1.11203 14.5803 1.11203 16.591 1.41363C16.7696 0.993352 17.0243 0.458659 17.2542 0.048869C17.2624 0.0339067 17.2751 0.0219197 17.2905 0.0146194C17.3058 0.00731907 17.3231 0.00507862 17.3399 0.00821792C19.2093 0.331788 20.9971 0.896641 22.6645 1.66344C22.6792 1.66967 22.6913 1.68016 22.6985 1.69458V1.69458ZM11.6117 10.9952C11.6323 9.5491 10.5807 8.35252 9.26059 8.35252C7.95126 8.35252 6.90976 9.53861 6.90976 10.9952C6.90976 12.4514 7.97186 13.6375 9.26059 13.6375C10.5702 13.6375 11.6117 12.4514 11.6117 10.9952V10.9952ZM20.3042 10.9952C20.3248 9.5491 19.2731 8.35252 17.9533 8.35252C16.6437 8.35252 15.6022 9.53861 15.6022 10.9952C15.6022 12.4514 16.6643 13.6375 17.9533 13.6375C19.2731 13.6375 20.3042 12.4514 20.3042 10.9952V10.9952Z" fill="white"/>
</svg>
