<svg width="28" height="20" viewBox="0 0 28 20" fill="none" xmlns="http://www.w3.org/2000/svg">
<path d="M8.5803 20C18.8763 20 24.5069 12.3062 24.5069 5.6344C24.5069 5.4159 24.502 5.1984 24.491 4.9818C25.5866 4.26676 26.5321 3.38142 27.2832 2.3673C26.2802 2.7695 25.201 3.0402 24.0687 3.16225C25.2244 2.5372 26.1116 1.54835 26.5302 0.36965C25.4314 0.957597 24.2293 1.37207 22.9758 1.5952C21.9543 0.6138 20.5001 0 18.8898 0C15.7986 0 13.2919 2.2611 13.2919 5.04825C13.2919 5.4445 13.3411 5.8298 13.4371 6.1995C8.78481 5.98835 4.6595 3.97925 1.89862 0.9243C1.40137 1.69482 1.13981 2.57053 1.14068 3.462C1.14068 5.2137 2.12887 6.76005 3.63167 7.66475C2.74274 7.64026 1.87333 7.42369 1.09654 7.03325C1.09571 7.05445 1.09571 7.0751 1.09571 7.09775C1.09571 9.5429 3.02517 11.5844 5.58646 12.047C5.10542 12.1652 4.60903 12.225 4.11045 12.2247C3.75039 12.2247 3.39948 12.1927 3.05844 12.1337C3.77108 14.1398 5.8375 15.5996 8.28751 15.6404C6.37163 16.9949 3.95823 17.8016 1.33522 17.8016C0.889006 17.802 0.443162 17.7786 0 17.7317C2.47734 19.164 5.41894 19.9997 8.58058 19.9997" fill="white"/>
</svg>
